<svg id="Layer_1" fill="#FFFFFF" enable-background="new 0 0 450 450" height="512" viewBox="0 0 450 450" width="512" xmlns="http://www.w3.org/2000/svg"><g id="XMLID_1_"><path d="m158.29 152.92c9.08.14 17.45 4.58 22.64 11.8-6.47 4.75-14.46 7.57-23.1 7.57s-16.63-2.82-23.1-7.57c5.19-7.23 13.53-11.66 22.6-11.8.03.01.07.01.11 0 .12.01.26.01.39.01s.27 0 .39-.01c.03.01.05.01.07 0z"/><path d="m196.91 133.22c0 9.2-3.19 17.67-8.55 24.36-3.83-4.92-8.78-8.82-14.38-11.37 4.08-4.11 6.61-9.78 6.61-16.02 0-12.56-10.21-22.77-22.76-22.77s-22.77 10.21-22.77 22.77c0 6.25 2.53 11.92 6.61 16.02-5.61 2.57-10.56 6.46-14.37 11.4-5.35-6.69-8.56-15.16-8.56-24.38 0-21.55 17.54-39.09 39.09-39.09 21.55-.01 39.08 17.52 39.08 39.08z"/><path d="m157.83 117.64c6.9 0 12.52 5.62 12.52 12.53 0 6.74-5.35 12.26-12.03 12.5-.33-.01-.67-.01-.99 0-6.68-.26-12.03-5.76-12.03-12.5 0-6.91 5.62-12.53 12.53-12.53z"/><path d="m115.74 35.56c3.07 0 5.56 2.5 5.56 5.57s-2.49 5.56-5.56 5.56-5.57-2.49-5.57-5.56 2.5-5.57 5.57-5.57z"/><path d="m158.15 35.56c3.07 0 5.56 2.5 5.56 5.57s-2.49 5.56-5.56 5.56-5.57-2.49-5.57-5.56 2.49-5.57 5.57-5.57z"/><path d="m200.55 35.56c3.07 0 5.56 2.5 5.56 5.57s-2.49 5.56-5.56 5.56-5.57-2.49-5.57-5.56 2.5-5.57 5.57-5.57z"/><path d="m356.41 16.53h-262.82c-5.87 0-10.64 4.77-10.64 10.64v38.57h284.09v-38.57c0-5.87-4.77-10.64-10.63-10.64zm-240.67 40.4c-8.71 0-15.81-7.08-15.81-15.8 0-8.71 7.09-15.81 15.81-15.81 8.71 0 15.8 7.1 15.8 15.81 0 8.72-7.09 15.8-15.8 15.8zm42.41 0c-8.71 0-15.81-7.08-15.81-15.8 0-8.71 7.1-15.81 15.81-15.81s15.8 7.1 15.8 15.81c-.01 8.72-7.09 15.8-15.8 15.8zm42.4 0c-8.71 0-15.81-7.08-15.81-15.8 0-8.71 7.1-15.81 15.81-15.81s15.8 7.1 15.8 15.81c0 8.72-7.09 15.8-15.8 15.8zm101.21-10.68h-64.11c-2.83 0-5.12-2.29-5.12-5.12s2.29-5.12 5.12-5.12h64.11c2.83 0 5.12 2.29 5.12 5.12-.01 2.83-2.3 5.12-5.12 5.12zm43.65 0h-3.74v3.74c0 2.83-2.29 5.12-5.12 5.12s-5.12-2.29-5.12-5.12v-3.74h-3.74c-2.83 0-5.12-2.29-5.12-5.12s2.29-5.12 5.12-5.12h3.74v-3.74c0-2.83 2.29-5.12 5.12-5.12s5.12 2.29 5.12 5.12v3.74h3.74c2.83 0 5.12 2.29 5.12 5.12s-2.29 5.12-5.12 5.12z"/><path d="m367.04 77.21v50.88h-160.16c-2.57-24.81-23.59-44.21-49.05-44.21-25.47 0-46.49 19.4-49.06 44.21h-25.81v-50.88-1.24h284.09z"/><path d="m206.88 138.33c-1.27 12.3-7.08 23.27-15.73 31.21-8.78 8.07-20.49 12.99-33.32 12.99s-24.52-4.91-33.3-12.96c-8.66-7.94-14.49-18.93-15.76-31.24h-25.81v137.32c0 5.87 4.77 10.64 10.64 10.64h262.81c5.87 0 10.64-4.77 10.64-10.64v-137.32zm-14.59 128.38h-88.77c-2.83 0-5.12-2.29-5.12-5.12s2.29-5.12 5.12-5.12h88.77c2.83 0 5.12 2.29 5.12 5.12s-2.29 5.12-5.12 5.12zm0-27.64h-88.77c-2.83 0-5.12-2.29-5.12-5.12 0-2.84 2.29-5.12 5.12-5.12h88.77c2.83 0 5.12 2.28 5.12 5.12 0 2.82-2.29 5.12-5.12 5.12zm0-27.66h-88.77c-2.83 0-5.12-2.29-5.12-5.12s2.29-5.12 5.12-5.12h88.77c2.83 0 5.12 2.29 5.12 5.12s-2.29 5.12-5.12 5.12zm42.55-46.25h99.08c2.84 0 5.12 2.29 5.12 5.12s-2.28 5.12-5.12 5.12h-99.08c-2.84 0-5.12-2.29-5.12-5.12s2.28-5.12 5.12-5.12zm116.76 83.21c0 12.18-9.91 22.09-22.09 22.09h-90.26c-12.18 0-22.09-9.91-22.09-22.09v-28.86c0-12.17 9.91-22.09 22.09-22.09h90.26c12.18 0 22.09 9.92 22.09 22.09z"/><path d="m341.37 219.51v28.86c0 6.53-5.31 11.86-11.86 11.86h-90.26c-6.54 0-11.86-5.32-11.86-11.86v-28.86c0-6.53 5.31-11.86 11.86-11.86h90.26c6.54.01 11.86 5.33 11.86 11.86z"/><path d="m440 108.85v210.57h-430v-210.57c0-14.62 11.9-26.52 26.52-26.52h36.2v193.33c0 11.51 9.37 20.88 20.88 20.88h262.81c11.51 0 20.88-9.37 20.88-20.88v-193.33h36.2c14.61 0 26.51 11.9 26.51 26.52z"/><path d="m440 329.65v5.9c0 14.62-11.9 26.52-26.52 26.52h-376.96c-14.62 0-26.52-11.9-26.52-26.52v-5.9z"/><g id="XMLID_2_"><path d="m294.45 428.35c0 2.83-2.29 5.12-5.12 5.12h-128.66c-2.83 0-5.12-2.29-5.12-5.12s2.29-5.12 5.12-5.12h32.27c6.78-16.76 6.74-33.54-.13-50.92h64.38c-6.87 17.38-6.91 34.16-.13 50.92h32.27c2.82 0 5.12 2.29 5.12 5.12z"/></g></g></svg>