<?xml version="1.0" encoding="utf-8"?>
<!-- Generator: Adobe Illustrator 27.3.1, SVG Export Plug-In . SVG Version: 6.00 Build 0)  -->
<svg version="1.1" id="Layer_1" xmlns="http://www.w3.org/2000/svg" xmlns:xlink="http://www.w3.org/1999/xlink" x="0px" y="0px"
	 viewBox="0 0 612 792" style="enable-background:new 0 0 612 792;" xml:space="preserve">
<style type="text/css">
	.st0{fill:#0F9447;}
	.st1{fill:#040303;}
	.st2{fill:#010101;}
</style>
<g>
	<polygon class="st0" points="150.4,352.31 150.4,438.47 237.19,438.47 237.19,433.27 155.6,433.27 155.6,357.51 456.4,357.51 
		456.4,433.27 375.62,433.27 375.62,438.47 461.6,438.47 461.6,352.31 	"/>
	<g>
		<path class="st1" d="M179.08,408.78h-8.28v-26.76h8.28V408.78z"/>
		<path class="st1" d="M217.49,382.01l-5.36,6.96h-9.56v19.8h-8.28v-19.8h-12.56l5.36-6.96H217.49z"/>
	</g>
	<g>
		<path class="st1" d="M263.05,392.69c6.52,0,10.04,2.44,10.04,7.32c0,5.48-3.32,8.76-11.48,8.76h-24.92l5.32-6.88h20.24
			c1.96,0,2.84-0.56,2.84-1.96c0-1.36-0.88-1.92-2.84-1.92h-14.56c-6.88,0-10.04-3.08-10.04-7.68c0-5.04,3.36-8.32,11.48-8.32h23.24
			l-5.32,6.96h-18.56c-1.92,0-2.84,0.48-2.84,1.84c0,1.36,0.92,1.88,2.84,1.88H263.05z"/>
		<path class="st1" d="M295.26,391.97c2.36,4.12,3.4,6.12,4.32,8c0.88-1.88,1.92-3.84,4.28-7.96l4.28-7.6
			c0.96-1.72,2.4-2.84,4.56-2.84c2.08,0,3.92,1.2,4.64,3.68l6.76,23.52h-8.24l-2.52-9.32c-0.84-3.04-1.4-5.2-1.84-7.36
			c-0.88,1.88-1.88,3.92-3.72,7.4l-3.6,6.72c-1.4,2.64-2.76,3-4.76,3s-3.36-0.36-4.76-3l-3.6-6.76c-1.96-3.68-2.92-5.56-3.76-7.36
			c-0.4,2.12-1,4.36-1.8,7.36l-2.52,9.32h-8.12l6.92-23.52c0.72-2.48,2.6-3.68,4.68-3.68c2.12,0,3.56,1.08,4.52,2.84L295.26,391.97z
			"/>
		<path class="st1" d="M338.47,408.78l5-6.88h6.72c1.6,0,3.48,0,4.76,0.08c-0.72-0.96-1.84-2.6-2.72-3.88l-4.8-7.08l-12.56,17.76
			h-9.8l17.16-24.2c1.12-1.56,2.76-3,5.36-3c2.48,0,4.12,1.32,5.28,3l16.72,24.2H338.47z"/>
		<path class="st1" d="M410.53,408.78h-11.08l-5.96-7.08h-12.72v7.08h-8.28v-13.68h23.28c2.56,0,4.56-1.16,4.56-3
			c0-2.08-1.72-3.12-4.56-3.12h-23.28l5.4-6.96h17.2c6.08,0,13.76,1.92,13.76,9.56c0,4.16-2.6,7.6-7,8.48
			c0.92,0.68,1.92,1.64,3.76,3.52L410.53,408.78z"/>
		<path class="st1" d="M446.74,382.01l-5.36,6.96h-9.56v19.8h-8.28v-19.8h-12.56l5.36-6.96H446.74z"/>
	</g>
	<g>
		<path class="st2" d="M247.56,435.13c1.8,0,2.77,0.67,2.77,2.02c0,1.51-0.92,2.42-3.17,2.42h-6.88l1.47-1.9h5.59
			c0.54,0,0.78-0.16,0.78-0.54c0-0.38-0.24-0.53-0.78-0.53h-4.02c-1.9,0-2.77-0.85-2.77-2.12c0-1.39,0.93-2.3,3.17-2.3h6.41
			l-1.47,1.92h-5.12c-0.53,0-0.78,0.13-0.78,0.51c0,0.38,0.25,0.52,0.78,0.52H247.56z"/>
		<path class="st2" d="M267.41,435.87c0,2.64-1.81,3.82-5.4,3.82c-3.6,0-5.4-1.18-5.4-3.82c0-2.64,1.8-3.81,5.4-3.81
			C265.6,432.06,267.41,433.23,267.41,435.87z M265.14,435.87c0-1.59-0.83-1.89-3.12-1.89c-2.3,0-3.12,0.3-3.12,1.89
			c0,1.59,0.83,1.9,3.12,1.9C264.31,437.76,265.14,437.46,265.14,435.87z"/>
		<path class="st2" d="M282.08,437.67l-1.48,1.9h-6.52v-7.38h2.28v5.49H282.08z"/>
		<path class="st2" d="M297.94,436.34c0,2.23-1.53,3.34-4.6,3.34c-3.55,0-5.09-1.12-5.09-3.34v-4.16h2.27v4.16
			c0,1.09,0.46,1.45,2.82,1.45c1.75,0,2.31-0.41,2.31-1.45v-4.16h2.3V436.34z"/>
		<path class="st2" d="M313.91,432.18l-1.48,1.92h-2.64v5.46h-2.29v-5.46h-3.47l1.48-1.92H313.91z"/>
		<path class="st2" d="M322.43,439.56h-2.28v-7.38h2.28V439.56z"/>
		<path class="st2" d="M339.93,435.87c0,2.64-1.81,3.82-5.4,3.82c-3.6,0-5.4-1.18-5.4-3.82c0-2.64,1.8-3.81,5.4-3.81
			C338.12,432.06,339.93,433.23,339.93,435.87z M337.66,435.87c0-1.59-0.83-1.89-3.12-1.89c-2.3,0-3.12,0.3-3.12,1.89
			c0,1.59,0.83,1.9,3.12,1.9C336.83,437.76,337.66,437.46,337.66,435.87z"/>
		<path class="st2" d="M353.16,439.29l-4.53-4.06v4.34h-2.08v-6.13c0-0.98,0.6-1.38,1.25-1.38c0.28,0,0.55,0.07,0.92,0.4l4.53,4.06
			v-4.34h2.09v6.11c0,0.98-0.6,1.39-1.26,1.39C353.79,439.69,353.51,439.62,353.16,439.29z"/>
		<path class="st2" d="M369.03,435.13c1.8,0,2.77,0.67,2.77,2.02c0,1.51-0.92,2.42-3.17,2.42h-6.88l1.47-1.9h5.59
			c0.54,0,0.78-0.16,0.78-0.54c0-0.38-0.24-0.53-0.78-0.53h-4.02c-1.9,0-2.77-0.85-2.77-2.12c0-1.39,0.93-2.3,3.17-2.3h6.41
			l-1.47,1.92h-5.12c-0.53,0-0.78,0.13-0.78,0.51c0,0.38,0.25,0.52,0.78,0.52H369.03z"/>
	</g>
</g>
</svg>
