<?xml version="1.0" encoding="utf-8"?>
<!-- Generator: Adobe Illustrator 27.3.1, SVG Export Plug-In . SVG Version: 6.00 Build 0)  -->
<svg version="1.1" id="Layer_1" xmlns="http://www.w3.org/2000/svg" xmlns:xlink="http://www.w3.org/1999/xlink" x="0px" y="0px"
	 viewBox="0 0 612 792" style="enable-background:new 0 0 612 792;" xml:space="preserve">
<style type="text/css">
	.st0{fill:#0F9447;}
	.st1{fill:#ffffff;}
	.st2{fill:#ffffff;}
</style>
<polygon class="st0" points="175.02,252.73 175.02,340.47 263.41,340.47 263.41,335.17 180.32,335.17 180.32,258.03 486.64,258.03 
	486.64,335.17 404.38,335.17 404.38,340.47 491.93,340.47 491.93,252.73 "/>
<g>
	<path class="st1" d="M289.74,292.03c6.64,0,10.23,2.49,10.23,7.46c0,5.58-3.38,8.92-11.69,8.92h-25.38l5.42-7.01h20.61
		c2,0,2.89-0.57,2.89-2c0-1.39-0.9-1.96-2.89-1.96h-14.83c-7.01,0-10.23-3.14-10.23-7.82c0-5.13,3.42-8.47,11.69-8.47h23.67
		l-5.42,7.09h-18.9c-1.96,0-2.89,0.49-2.89,1.87c0,1.38,0.94,1.91,2.89,1.91H289.74z"/>
	<path class="st1" d="M322.54,291.3c2.4,4.2,3.46,6.23,4.4,8.15c0.9-1.92,1.96-3.91,4.36-8.11l4.36-7.74
		c0.98-1.75,2.44-2.89,4.64-2.89c2.12,0,3.99,1.22,4.73,3.75l6.89,23.96h-8.39l-2.57-9.49c-0.86-3.1-1.43-5.3-1.87-7.5
		c-0.9,1.91-1.92,3.99-3.79,7.54l-3.67,6.84c-1.43,2.69-2.81,3.06-4.85,3.06s-3.42-0.37-4.85-3.06l-3.67-6.89
		c-2-3.75-2.97-5.66-3.83-7.5c-0.41,2.16-1.02,4.44-1.83,7.5l-2.57,9.49h-8.27l7.05-23.96c0.73-2.53,2.65-3.75,4.77-3.75
		c2.16,0,3.63,1.1,4.6,2.89L322.54,291.3z"/>
	<path class="st1" d="M366.54,308.41l5.09-7.01h6.84c1.63,0,3.54,0,4.85,0.08c-0.73-0.98-1.87-2.65-2.77-3.95l-4.89-7.21
		l-12.79,18.09h-9.98l17.48-24.65c1.14-1.59,2.81-3.06,5.46-3.06c2.53,0,4.2,1.34,5.38,3.06l17.03,24.65H366.54z"/>
	<path class="st1" d="M439.92,308.41h-11.29l-6.07-7.21h-12.96v7.21h-8.43v-13.93h23.71c2.61,0,4.64-1.18,4.64-3.06
		c0-2.12-1.75-3.18-4.64-3.18h-23.71l5.5-7.09h17.52c6.19,0,14.01,1.96,14.01,9.74c0,4.24-2.65,7.74-7.13,8.64
		c0.94,0.69,1.96,1.67,3.83,3.59L439.92,308.41z"/>
	<path class="st1" d="M476.8,281.15l-5.46,7.09h-9.74v20.17h-8.43v-20.17h-12.79l5.46-7.09H476.8z"/>
</g>
<g>
	<rect x="195.8" y="281.15" class="st1" width="8.43" height="27.26"/>
	<polygon class="st1" points="212.38,281.15 206.92,288.24 219.72,288.24 219.72,308.41 228.15,308.41 228.15,288.24 237.89,288.24 
		243.34,281.15 	"/>
</g>
<g>
	<path class="st2" d="M273.96,336.56c1.83,0,2.82,0.69,2.82,2.05c0,1.54-0.93,2.46-3.22,2.46h-7l1.49-1.93h5.68
		c0.55,0,0.8-0.16,0.8-0.55c0-0.38-0.25-0.54-0.8-0.54h-4.09c-1.93,0-2.82-0.87-2.82-2.16c0-1.42,0.94-2.34,3.22-2.34h6.52
		l-1.49,1.95h-5.21c-0.54,0-0.8,0.13-0.8,0.52c0,0.38,0.26,0.53,0.8,0.53H273.96z"/>
	<path class="st2" d="M294.17,337.31c0,2.68-1.84,3.89-5.49,3.89c-3.66,0-5.49-1.2-5.49-3.89c0-2.68,1.83-3.87,5.49-3.87
		C292.33,333.44,294.17,334.63,294.17,337.31z M291.86,337.31c0-1.62-0.84-1.92-3.18-1.92s-3.18,0.3-3.18,1.92s0.84,1.93,3.18,1.93
		S291.86,338.93,291.86,337.31z"/>
	<path class="st2" d="M309.11,339.14l-1.5,1.93h-6.64v-7.51h2.32v5.58H309.11z"/>
	<path class="st2" d="M325.26,337.8c0,2.27-1.56,3.4-4.68,3.4c-3.62,0-5.18-1.13-5.18-3.4v-4.23h2.31v4.23
		c0,1.11,0.47,1.47,2.86,1.47c1.79,0,2.35-0.42,2.35-1.47v-4.23h2.34V337.8z"/>
	<path class="st2" d="M341.52,333.56l-1.5,1.95h-2.68v5.56h-2.33v-5.56h-3.53l1.5-1.95H341.52z"/>
	<path class="st2" d="M350.21,341.08h-2.33v-7.51h2.33V341.08z"/>
	<path class="st2" d="M368.02,337.31c0,2.68-1.84,3.89-5.49,3.89c-3.66,0-5.49-1.2-5.49-3.89c0-2.68,1.83-3.87,5.49-3.87
		C366.18,333.44,368.02,334.63,368.02,337.31z M365.7,337.31c0-1.62-0.84-1.92-3.18-1.92s-3.18,0.3-3.18,1.92s0.84,1.93,3.18,1.93
		S365.7,338.93,365.7,337.31z"/>
	<path class="st2" d="M381.5,340.8l-4.6-4.13v4.41h-2.11v-6.23c0-1,0.61-1.4,1.27-1.4c0.28,0,0.56,0.07,0.93,0.4l4.6,4.13v-4.41
		h2.12v6.22c0,1-0.61,1.42-1.28,1.42C382.14,341.2,381.85,341.13,381.5,340.8z"/>
	<path class="st2" d="M397.66,336.56c1.83,0,2.82,0.69,2.82,2.05c0,1.54-0.93,2.46-3.22,2.46h-7l1.49-1.93h5.68
		c0.55,0,0.8-0.16,0.8-0.55c0-0.38-0.25-0.54-0.8-0.54h-4.09c-1.93,0-2.82-0.87-2.82-2.16c0-1.42,0.94-2.34,3.22-2.34h6.52
		l-1.49,1.95h-5.21c-0.54,0-0.8,0.13-0.8,0.52c0,0.38,0.26,0.53,0.8,0.53H397.66z"/>
</g>
</svg>
