<svg height="512"  fill='#ffffff'  viewBox="0 0 128 128" width="512" xmlns="http://www.w3.org/2000/svg"><g id="Glyph"><g id="Glyph-2" data-name="Glyph"><path d="m96.6 88.5a5.506 5.506 0 0 0 5.5-5.5v-12a5.5 5.5 0 0 0 -11 0v12a5.506 5.506 0 0 0 5.5 5.5z"/><path d="m0 114.5a13.546 13.546 0 0 0 13.5 13.5h101a13.546 13.546 0 0 0 13.5-13.5v-84.5h-128zm84.1-43.5a12.5 12.5 0 0 1 25 0v12a12.5 12.5 0 0 1 -25 0zm-32.6-3a9.511 9.511 0 0 1 9.5-9.5h12a3.5 3.5 0 0 1 0 7h-12a2.5 2.5 0 0 0 -2.5 2.5v5.5h14.5a3.5 3.5 0 0 1 0 7h-14.5v5.5a2.5 2.5 0 0 0 2.5 2.5h12a3.5 3.5 0 0 1 0 7h-12a9.511 9.511 0 0 1 -9.5-9.5zm-18.6 12.5h-3a11 11 0 0 1 0-22h4.5a9.511 9.511 0 0 1 9.5 9.5 3.5 3.5 0 0 1 -7 0 2.5 2.5 0 0 0 -2.5-2.5h-4.5a4 4 0 0 0 0 8h3a11 11 0 1 1 0 22h-4.5a9.511 9.511 0 0 1 -9.5-9.5 3.5 3.5 0 1 1 7 0 2.5 2.5 0 0 0 2.5 2.5h4.5a4 4 0 1 0 0-8z"/><path d="m114.5 0h-101a13.54 13.54 0 0 0 -13.5 13.5v13.5h128v-13.5a13.54 13.54 0 0 0 -13.5-13.5zm-99 18.5a3 3 0 1 1 3-3 3 3 0 0 1 -3 3zm16 0a3 3 0 1 1 3-3 3 3 0 0 1 -3 3zm16 0a3 3 0 1 1 3-3 3 3 0 0 1 -3 3zm64 0h-16a3 3 0 0 1 0-6h16a3 3 0 0 1 0 6z"/></g></g></svg>