<svg height="512" fill='#ffffff'  viewBox="0 0 32 32" width="512" xmlns="http://www.w3.org/2000/svg"><g id="_x31_7"><path d="m29 2h-21c-.5522461 0-1 .4472656-1 1v8h-4c-.5522461 0-1 .4472656-1 1v17c0 .5527344.4477539 1 1 1h21c.5522461 0 1-.4472656 1-1v-8h4c.5522461 0 1-.4472656 1-1v-17c0-.5527344-.4477539-1-1-1zm-1 6h-6.3818359l2-4h4.3818359zm-10.3818359 0 2-4h1.7636719l-2 4zm-8.6181641-4h8.3818359l-2 4h-6.3818359zm-5 9h8.3818359l-2 4h-6.3818359zm19 4h-6.3818359l2-4h4.3818359zm-8.6181641 0h-1.7636719l2-4h1.7636719zm8.6181641 11h-19v-9h19zm5-9h-3v-7c0-.5527344-.4477539-1-1-1h-15v-1h19z"/><circle cx="6" cy="15" r="1"/><circle cx="9" cy="15" r="1"/><circle cx="11" cy="6" r="1"/><circle cx="14" cy="6" r="1"/><path d="m12 20h-6c-.5522461 0-1 .4472656-1 1v5c0 .5527344.4477539 1 1 1h6c.5522461 0 1-.4472656 1-1v-5c0-.5527344-.4477539-1-1-1zm-1 5h-4v-3h4z"/><path d="m14 21v5c0 .5527344.4477539 1 1 1h6c.5522461 0 1-.4472656 1-1v-5c0-.5527344-.4477539-1-1-1h-6c-.5522461 0-1 .4472656-1 1zm2 1h4v3h-4z"/></g></svg>